<?xml version="1.0" standalone="no"?>
<!DOCTYPE svg PUBLIC "-//W3C//DTD SVG 20010904//EN"
 "http://www.w3.org/TR/2001/REC-SVG-20010904/DTD/svg10.dtd">
<svg version="1.0" xmlns="http://www.w3.org/2000/svg"
 width="151.000000pt" height="130.000000pt" viewBox="0 0 151.000000 130.000000"
 preserveAspectRatio="xMidYMid meet">

<g transform="translate(0.000000,130.000000) scale(0.100000,-0.100000)"
fill="#d7edc7" stroke="none">
<path d="M660 1291 c-233 -34 -426 -174 -533 -386 -80 -159 -92 -373 -31 -554
14 -40 23 -75 22 -76 -2 -1 -27 -10 -55 -19 -54 -18 -73 -46 -30 -46 12 0 47
-12 77 -26 l55 -26 -30 -12 c-30 -13 -94 -77 -115 -115 -9 -18 -8 -21 8 -21
11 0 46 12 78 27 55 26 68 28 187 28 l127 0 0 41 c0 40 1 42 39 48 76 12 327
26 376 22 273 -28 261 -24 256 -86 l-2 -25 128 0 c119 0 132 -2 187 -27 65
-31 86 -35 86 -14 0 21 -81 107 -114 121 l-30 13 40 20 c22 11 57 23 77 27 57
11 45 33 -30 56 -24 6 -43 15 -43 19 0 4 7 24 15 44 27 64 46 179 46 276 -1
376 -283 672 -661 694 -41 3 -100 1 -130 -3z m265 -36 c234 -62 427 -255 488
-486 32 -125 17 -338 -34 -456 -18 -42 -20 -43 -64 -43 l-46 0 7 45 c5 39 4
45 -11 45 -13 0 -16 5 -10 23 28 90 36 132 36 207 0 153 -42 257 -149 371
-163 174 -417 217 -635 108 -74 -38 -190 -151 -229 -225 -69 -129 -79 -322
-23 -466 5 -13 2 -18 -10 -18 -14 0 -15 -7 -9 -45 l6 -45 -46 0 c-46 0 -47 1
-66 46 -51 117 -67 307 -37 434 75 319 362 538 687 524 47 -1 112 -10 145 -19z
m-15 -170 c71 -25 106 -43 155 -81 136 -103 205 -243 205 -414 0 -109 -31
-224 -58 -216 -40 12 -173 36 -252 45 -226 28 -359 19 -656 -46 -43 -9 -76
147 -61 287 5 55 17 95 46 155 93 191 280 302 491 291 47 -3 105 -12 130 -21z
m123 -695 c140 -24 222 -45 222 -56 0 -5 -4 -34 -8 -64 -4 -30 -3 -69 2 -87 5
-17 7 -33 5 -36 -3 -2 -35 2 -72 10 -273 57 -502 63 -732 20 -80 -15 -155 -29
-166 -32 -21 -5 -22 -1 -22 78 0 45 -2 91 -4 101 -4 22 37 35 187 61 220 38
386 40 588 5z m-795 -138 c9 -6 11 -21 5 -53 -12 -72 -12 -72 52 -96 l60 -22
-91 6 c-86 5 -95 4 -150 -23 -32 -15 -63 -30 -69 -33 -5 -2 6 15 25 39 20 25
54 52 83 66 l50 23 -49 30 c-26 17 -56 31 -66 31 -30 0 -20 19 15 29 41 12
118 13 135 3z m1165 -3 c38 -10 51 -29 19 -29 -10 0 -40 -14 -66 -31 l-49 -30
50 -23 c28 -13 63 -41 81 -64 41 -52 40 -57 -4 -27 -54 37 -108 48 -199 41
-65 -4 -74 -3 -50 6 17 6 44 16 61 23 l31 13 -10 57 c-7 46 -7 59 4 66 19 12
86 11 132 -2z"/>
<path d="M690 1235 c-14 -17 -7 -45 12 -45 9 0 8 3 -2 10 -12 8 -13 13 -2 30
14 23 10 27 -8 5z"/>
<path d="M724 1236 c-8 -22 3 -49 19 -43 6 2 12 14 12 27 0 27 -22 39 -31 16z
m26 -16 c0 -11 -4 -20 -10 -20 -5 0 -10 9 -10 20 0 11 5 20 10 20 6 0 10 -9
10 -20z"/>
<path d="M776 1226 c-4 -16 -5 -31 -1 -34 3 -3 5 1 5 9 0 11 2 11 10 -1 9 -13
10 -13 10 0 0 13 1 13 10 0 7 -11 10 -6 10 20 -1 31 -2 33 -12 15 -11 -19 -11
-19 -18 0 -6 17 -8 15 -14 -9z"/>
<path d="M626 1213 c10 -40 15 -42 12 -5 -1 18 -6 32 -10 32 -5 0 -5 -12 -2
-27z"/>
<path d="M838 1216 c-4 -21 -3 -23 14 -13 21 14 24 37 4 37 -7 0 -16 -11 -18
-24z"/>
<path d="M577 1218 c-6 -21 4 -48 19 -48 20 0 26 17 14 40 -12 23 -26 26 -33
8z m26 -38 c-7 -8 -22 24 -16 34 4 5 10 1 13 -10 4 -10 6 -21 3 -24z"/>
<path d="M882 1210 c0 -14 2 -19 5 -12 2 6 2 18 0 25 -3 6 -5 1 -5 -13z"/>
<path d="M931 1193 c0 -16 3 -22 6 -13 3 8 10 21 16 28 7 8 5 12 -7 12 -11 0
-16 -8 -15 -27z"/>
<path d="M962 1185 c-6 -13 -8 -26 -4 -29 5 -3 13 8 19 25 14 35 1 39 -15 4z"/>
<path d="M522 1175 c6 -14 15 -25 19 -25 5 0 3 11 -3 25 -6 14 -15 25 -19 25
-5 0 -3 -11 3 -25z"/>
<path d="M892 1184 c-7 -8 -8 -14 -3 -14 10 0 25 19 20 25 -2 1 -10 -3 -17
-11z"/>
<path d="M995 1170 l-15 -30 25 12 c25 11 33 32 15 43 -5 3 -16 -8 -25 -25z"/>
<path d="M492 1165 c6 -14 13 -24 14 -22 6 6 -9 47 -17 47 -5 0 -3 -11 3 -25z"/>
<path d="M440 1153 c0 -15 18 -35 27 -32 5 2 1 12 -9 22 -10 9 -18 14 -18 10z"/>
<path d="M1060 1141 c0 -11 -6 -22 -12 -24 -8 -4 -7 -6 3 -6 10 -1 19 9 21 24
3 14 1 25 -3 25 -5 0 -9 -9 -9 -19z"/>
<path d="M417 1126 c10 -13 19 -23 21 -21 5 5 -22 45 -31 45 -4 0 0 -11 10
-24z"/>
<path d="M1092 1128 c-15 -15 -16 -35 -2 -43 6 -4 7 1 3 11 -4 11 1 22 12 30
10 8 14 14 9 14 -6 0 -15 -5 -22 -12z"/>
<path d="M395 1106 c10 -14 19 -26 22 -26 7 0 -17 39 -28 46 -6 3 -3 -5 6 -20z"/>
<path d="M1127 1102 c-19 -20 -23 -37 -7 -27 6 3 10 -1 10 -10 0 -12 5 -11 23
7 25 24 17 39 -8 18 -18 -15 -20 1 -3 18 7 7 10 12 7 12 -3 0 -13 -8 -22 -18z"/>
<path d="M350 1103 c0 -5 12 -16 26 -27 l26 -19 -17 27 c-16 25 -35 35 -35 19z"/>
<path d="M325 1079 c-4 -6 2 -13 14 -16 11 -3 18 -9 15 -14 -3 -5 0 -9 5 -9
19 0 12 22 -9 27 -11 3 -17 9 -14 14 3 5 3 9 0 9 -3 0 -8 -5 -11 -11z"/>
<path d="M1165 1060 c-17 -18 -17 -20 -2 -14 14 5 16 2 10 -12 -6 -18 -6 -18
15 0 26 22 28 28 7 20 -11 -5 -13 -2 -9 10 8 22 1 20 -21 -4z"/>
<path d="M306 1048 c5 -8 2 -9 -10 -5 -12 5 -16 3 -14 -5 3 -7 16 -13 30 -13
27 -1 28 19 2 29 -10 4 -12 2 -8 -6z"/>
<path d="M264 1021 c7 -11 46 -35 46 -28 0 3 -12 12 -26 22 -15 9 -23 12 -20
6z"/>
<path d="M1196 1014 c-9 -24 -2 -26 12 -4 7 11 8 20 3 20 -5 0 -12 -7 -15 -16z"/>
<path d="M1224 989 c-19 -22 -19 -22 3 -10 24 12 39 31 25 31 -5 0 -17 -10
-28 -21z"/>
<path d="M230 971 c0 -6 5 -13 10 -16 6 -3 10 1 10 9 0 9 -4 16 -10 16 -5 0
-10 -4 -10 -9z"/>
<path d="M257 955 c-4 -8 -2 -17 3 -20 6 -4 10 -4 10 -1 0 2 3 11 6 20 3 9 2
16 -4 16 -5 0 -12 -7 -15 -15z"/>
<path d="M1268 947 c-21 -10 -24 -14 -13 -24 10 -9 17 -8 31 8 22 25 16 30
-18 16z"/>
<path d="M210 947 c0 -3 12 -12 26 -22 15 -9 23 -12 20 -6 -7 11 -46 35 -46
28z"/>
<path d="M185 910 c-7 -11 42 -37 51 -27 4 3 4 13 1 22 -7 17 -42 21 -52 5z
m40 -10 c3 -5 2 -10 -4 -10 -5 0 -13 5 -16 10 -3 6 -2 10 4 10 5 0 13 -4 16
-10z"/>
<path d="M1284 905 c-18 -13 -18 -14 4 -8 12 3 25 9 28 14 8 14 -10 11 -32 -6z"/>
<path d="M1303 890 c-13 -5 -23 -12 -23 -15 0 -9 16 -5 36 10 22 16 19 18 -13
5z"/>
<path d="M173 867 c2 -6 14 -17 28 -26 13 -8 21 -11 17 -6 -4 4 -3 14 2 20 8
10 3 14 -20 17 -18 3 -29 0 -27 -5z"/>
<path d="M1313 867 c-13 -5 -23 -14 -23 -19 0 -17 32 -20 48 -4 22 21 4 37
-25 23z m22 -17 c-3 -5 -13 -10 -21 -10 -8 0 -12 5 -9 10 3 6 13 10 21 10 8 0
12 -4 9 -10z"/>
<path d="M154 828 c2 -7 14 -13 29 -13 14 -1 23 3 20 8 -3 5 -14 7 -24 4 -10
-3 -20 -1 -23 4 -2 5 -3 4 -2 -3z"/>
<path d="M1335 793 l-30 -14 30 6 c31 7 41 12 34 19 -2 2 -17 -3 -34 -11z"/>
<path d="M148 794 c6 -3 12 -12 12 -20 0 -8 8 -14 18 -14 14 0 15 2 2 10 -13
8 -12 10 4 10 26 0 18 6 -19 13 -16 4 -24 4 -17 1z"/>
<path d="M1330 760 c-11 -8 -7 -10 18 -8 17 1 32 6 32 10 0 11 -32 10 -50 -2z"/>
<path d="M130 739 c0 -6 7 -8 16 -5 8 3 13 2 10 -3 -3 -5 0 -11 7 -14 8 -3 13
3 13 14 0 13 -7 19 -23 19 -13 0 -23 -5 -23 -11z"/>
<path d="M1348 729 c-10 -5 -18 -15 -18 -21 0 -6 9 -3 21 8 17 16 22 16 30 4
9 -13 10 -13 7 -1 -5 19 -19 23 -40 10z"/>
<path d="M120 704 c0 -8 5 -12 10 -9 6 4 8 11 5 16 -9 14 -15 11 -15 -7z"/>
<path d="M1360 690 c-14 -4 -18 -9 -10 -9 13 -1 13 -2 0 -11 -11 -7 -6 -10 20
-9 27 0 30 2 15 8 -19 8 -19 8 0 19 23 13 12 14 -25 2z"/>
<path d="M1365 630 l-30 -20 35 1 c19 0 29 3 21 6 -11 4 -11 7 0 14 7 4 11 10
8 13 -3 3 -18 -4 -34 -14z"/>
<path d="M115 620 c-4 -7 3 -8 22 -4 38 9 42 14 10 14 -14 0 -29 -5 -32 -10z"/>
<path d="M123 603 c-25 -9 -13 -23 20 -22 22 1 26 3 12 7 l-20 5 20 8 20 8
-20 0 c-11 -1 -26 -3 -32 -6z"/>
<path d="M1351 587 c-14 -17 -4 -27 26 -27 26 0 32 25 7 34 -21 8 -20 8 -33
-7z m34 -7 c3 -5 -3 -10 -15 -10 -12 0 -18 5 -15 10 3 6 10 10 15 10 5 0 12
-4 15 -10z"/>
<path d="M135 534 c-21 -10 -24 -13 -8 -10 12 2 24 -2 27 -10 4 -9 -2 -14 -17
-14 -18 0 -19 -2 -7 -10 13 -9 13 -11 0 -20 -11 -8 -7 -9 15 -4 36 8 45 14 21
14 -11 0 -14 4 -9 13 6 8 14 61 8 57 0 -1 -13 -7 -30 -16z"/>
<path d="M1340 540 c0 -5 7 -7 15 -4 8 4 15 8 15 10 0 2 -7 4 -15 4 -8 0 -15
-4 -15 -10z"/>
<path d="M1341 506 c-10 -12 -8 -17 11 -26 21 -10 21 -10 5 3 -10 9 -14 18 -8
21 5 3 17 -1 25 -10 14 -13 16 -13 16 -1 0 8 -7 18 -16 21 -21 8 -20 8 -33 -8z"/>
<path d="M160 445 c-7 -8 -16 -12 -21 -9 -5 3 -9 0 -9 -5 0 -6 7 -11 15 -11 8
0 15 5 15 11 0 6 7 9 15 5 8 -3 15 -1 15 4 0 17 -18 20 -30 5z"/>
<path d="M1325 449 c-8 -11 15 -32 24 -23 3 3 -1 9 -9 14 -12 8 -11 10 7 10
12 0 24 -8 27 -17 4 -14 4 -14 3 2 -2 22 -41 33 -52 14z"/>
<path d="M179 413 c-1 -5 -1 -11 0 -15 0 -4 -6 -5 -14 -2 -8 4 -15 1 -15 -6 0
-18 43 -7 46 13 1 9 -2 17 -7 17 -5 0 -10 -3 -10 -7z"/>
<path d="M1311 406 c2 -2 14 -8 26 -14 16 -9 22 -9 26 2 4 9 -4 13 -25 14 -16
0 -28 -1 -27 -2z"/>
<path d="M730 951 c0 -15 3 -56 6 -90 10 -87 30 -81 39 12 3 39 9 80 11 90 4
13 -1 17 -25 17 -27 0 -31 -3 -31 -29z"/>
<path d="M638 959 c-10 -5 -18 -15 -18 -21 0 -25 64 -148 76 -148 8 0 14 2 14
5 0 19 -44 175 -49 175 -3 0 -14 -5 -23 -11z"/>
<path d="M825 891 c-10 -42 -20 -82 -22 -88 -3 -7 1 -13 9 -13 10 0 88 136 88
154 0 2 -13 9 -28 14 l-29 10 -18 -77z"/>
<path d="M532 898 c-7 -7 -12 -15 -12 -20 0 -15 125 -127 133 -119 10 10 -81
151 -97 151 -7 0 -17 -5 -24 -12z"/>
<path d="M898 838 c-26 -40 -44 -76 -42 -80 6 -10 123 89 132 110 5 13 -22 42
-37 42 -3 0 -27 -33 -53 -72z"/>
<path d="M460 811 c-5 -11 -10 -24 -10 -29 0 -9 140 -72 160 -72 24 0 6 21
-59 69 -38 28 -71 51 -74 51 -4 0 -11 -9 -17 -19z"/>
<path d="M962 780 c-67 -48 -87 -70 -62 -70 23 0 160 64 160 74 0 7 -6 20 -13
29 -11 16 -18 13 -85 -33z"/>
<path d="M689 755 c-31 -17 -59 -57 -59 -84 0 -11 14 -28 33 -40 60 -37 104
-76 99 -89 -6 -20 9 -14 30 14 44 55 160 104 247 104 19 0 31 3 27 7 -22 22
-174 -19 -250 -67 -65 -41 -58 -28 9 16 59 40 66 58 39 100 -34 51 -118 70
-175 39z"/>
<path d="M427 714 c-4 -4 -7 -16 -7 -28 0 -15 3 -17 12 -8 16 16 51 15 116 -2
28 -8 52 -11 52 -7 0 4 -30 15 -67 25 -38 10 -75 20 -83 23 -9 2 -19 1 -23 -3z"/>
<path d="M995 699 c-82 -24 -111 -43 -34 -23 66 17 101 18 117 2 9 -9 12 -6
12 15 0 32 -3 32 -95 6z"/>
<path d="M498 660 c80 -11 166 -51 215 -98 20 -20 37 -31 37 -25 0 21 -83 83
-139 104 -31 12 -83 23 -116 25 l-60 3 63 -9z"/>
<path d="M413 633 c-6 -4 19 -8 55 -9 74 0 157 -24 197 -56 14 -11 28 -18 31
-15 8 7 -45 41 -94 60 -48 19 -171 32 -189 20z"/>
<path d="M950 626 c-25 -7 -62 -20 -82 -30 -39 -19 -69 -46 -50 -46 6 0 14 5
18 11 3 6 32 23 63 36 43 20 73 26 128 26 40 0 70 4 67 9 -8 12 -92 9 -144 -6z"/>
<path d="M385 590 c-14 -7 3 -9 60 -5 54 4 98 1 135 -9 60 -16 79 -13 34 5
-39 15 -204 22 -229 9z"/>
<path d="M925 585 c-38 -13 -38 -14 -5 -7 19 4 78 6 130 6 57 -1 87 2 75 6
-32 13 -156 10 -200 -5z"/>
<path d="M390 563 c-33 -5 -54 -13 -49 -17 2 -2 51 2 109 9 102 12 103 13 35
13 -38 -1 -81 -3 -95 -5z"/>
<path d="M1020 560 c149 -20 155 -21 143 -9 -6 6 -55 12 -109 14 -91 4 -94 3
-34 -5z"/>
<path d="M465 540 c-22 -4 -65 -10 -96 -13 -63 -5 -79 -11 -79 -33 0 -17 10
-17 135 1 142 20 207 19 265 -6 52 -23 77 -22 145 5 51 19 102 20 240 1 137
-18 145 -18 145 -1 0 22 -6 23 -135 40 -161 21 -216 20 -276 -5 -50 -22 -54
-22 -124 5 -43 16 -153 19 -220 6z"/>
<path d="M626 382 c-3 -5 1 -30 9 -58 13 -44 14 -46 13 -14 -1 19 -6 40 -11
47 -5 7 -6 17 -2 23 3 5 4 10 1 10 -3 0 -7 -4 -10 -8z"/>
<path d="M744 376 c-3 -7 -4 -33 -1 -57 l4 -44 1 52 c1 30 7 53 15 56 9 4 9 6
-1 6 -7 1 -15 -5 -18 -13z"/>
<path d="M433 353 c-15 -6 -17 -39 -3 -48 6 -3 10 -15 10 -25 0 -10 4 -21 9
-25 10 -6 -1 45 -15 66 -4 7 1 18 11 26 19 13 12 16 -12 6z"/>
<path d="M600 335 c0 -11 5 -27 10 -35 8 -12 10 -12 10 5 0 11 -5 27 -10 35
-8 12 -10 12 -10 -5z"/>
<path d="M713 315 c0 -22 2 -30 4 -17 2 12 2 30 0 40 -3 9 -5 -1 -4 -23z"/>
<path d="M667 333 c-12 -12 -7 -31 9 -37 14 -5 15 -4 5 8 -7 8 -10 20 -6 26 7
11 2 14 -8 3z"/>
<path d="M936 309 c-8 -42 0 -50 9 -9 4 17 5 34 2 36 -2 3 -7 -10 -11 -27z"/>
<path d="M773 314 c-3 -8 -2 -19 3 -24 5 -5 9 1 9 16 0 28 -3 30 -12 8z"/>
<path d="M822 305 c0 -16 2 -22 5 -12 2 9 2 23 0 30 -3 6 -5 -1 -5 -18z"/>
<path d="M295 310 c-3 -6 1 -7 9 -4 18 7 21 14 7 14 -6 0 -13 -4 -16 -10z"/>
<path d="M895 311 c-3 -5 -1 -12 5 -16 5 -3 10 1 10 9 0 18 -6 21 -15 7z"/>
<path d="M965 295 c0 -13 3 -21 8 -18 4 2 7 10 7 18 0 8 -3 16 -7 18 -5 3 -8
-5 -8 -18z"/>
<path d="M394 294 c9 -8 16 -24 16 -35 0 -10 4 -19 9 -19 5 0 4 15 -2 35 -6
19 -17 35 -24 35 -12 0 -11 -3 1 -16z"/>
<path d="M474 299 c-3 -6 -2 -15 3 -20 5 -5 9 -1 10 11 2 22 -2 25 -13 9z"/>
<path d="M1070 307 c0 -1 -4 -17 -9 -35 -6 -20 -6 -32 0 -32 5 0 9 10 9 23 0
13 5 28 12 35 9 9 9 12 0 12 -7 0 -12 -1 -12 -3z"/>
<path d="M350 296 c0 -2 7 -9 15 -16 13 -11 14 -10 9 4 -5 14 -24 23 -24 12z"/>
<path d="M508 288 c16 -20 52 -20 45 0 -5 11 -7 11 -14 1 -6 -10 -11 -10 -26
2 -16 13 -17 12 -5 -3z"/>
<path d="M290 287 c0 -8 39 -81 40 -74 0 12 -28 77 -34 77 -4 0 -6 -1 -6 -3z"/>
<path d="M1001 274 c0 -11 3 -14 6 -6 3 7 2 16 -1 19 -3 4 -6 -2 -5 -13z"/>
<path d="M1030 275 c0 -8 2 -15 4 -15 2 0 6 7 10 15 3 8 1 15 -4 15 -6 0 -10
-7 -10 -15z"/>
<path d="M1165 266 c-3 -9 -7 -23 -10 -31 -2 -8 -1 -15 4 -15 5 0 11 12 14 28
6 30 0 44 -8 18z"/>
<path d="M1133 249 c-2 -23 3 -25 10 -4 4 8 3 16 -1 19 -4 3 -9 -4 -9 -15z"/>
<path d="M1194 234 c-6 -19 -8 -34 -3 -34 8 0 24 59 17 65 -2 2 -8 -12 -14
-31z"/>
<path d="M488 253 c7 -3 16 -2 19 1 4 3 -2 6 -13 5 -11 0 -14 -3 -6 -6z"/>
<path d="M360 240 c0 -5 5 -10 11 -10 5 0 7 5 4 10 -3 6 -8 10 -11 10 -2 0 -4
-4 -4 -10z"/>
</g>
</svg>
